<svg xmlns="http://www.w3.org/2000/svg" width="73.211" height="73.212" viewBox="0 0 73.211 73.212">
  <path id="facebook-svgrepo-com_1_" data-name="facebook-svgrepo-com (1)" d="M63.348,0H9.867A9.865,9.865,0,0,0,0,9.865V63.346a9.865,9.865,0,0,0,9.865,9.865H36.244l.045-26.162h-6.8a1.6,1.6,0,0,1-1.6-1.6l-.033-8.433a1.6,1.6,0,0,1,1.6-1.61h6.784V27.261c0-9.456,5.775-14.605,14.211-14.605h6.922a1.6,1.6,0,0,1,1.6,1.6V21.37a1.6,1.6,0,0,1-1.6,1.6l-4.248,0c-4.588,0-5.476,2.18-5.476,5.379v7.054h10.08A1.6,1.6,0,0,1,59.327,37.2l-1,8.433a1.6,1.6,0,0,1-1.593,1.415H47.7l-.045,26.162H63.348a9.865,9.865,0,0,0,9.865-9.865V9.865A9.866,9.866,0,0,0,63.348,0Z" transform="translate(-0.002)" fill="#fff"/>
</svg>
