<svg xmlns="http://www.w3.org/2000/svg" width="69.833" height="69.68" viewBox="0 0 69.833 69.68">
  <g id="XMLID_801_" transform="translate(0 -0.341)">
    <path id="XMLID_802_" d="M20.072,99.73H6.053a1.126,1.126,0,0,0-1.126,1.126v45.038a1.126,1.126,0,0,0,1.126,1.126H20.072a1.126,1.126,0,0,0,1.126-1.126V100.856A1.126,1.126,0,0,0,20.072,99.73Z" transform="translate(-3.817 -77)" fill="#fff"/>
    <path id="XMLID_803_" d="M9.251.341a9.243,9.243,0,1,0,9.243,9.241A9.256,9.256,0,0,0,9.251.341Z" fill="#fff"/>
    <path id="XMLID_804_" d="M134.172,94.761a16.465,16.465,0,0,0-12.317,5.171V97.007a1.126,1.126,0,0,0-1.126-1.126H107.3a1.126,1.126,0,0,0-1.126,1.126v45.038a1.126,1.126,0,0,0,1.126,1.126h13.989a1.126,1.126,0,0,0,1.126-1.126V119.761c0-7.509,2.04-10.434,7.274-10.434,5.7,0,6.154,4.69,6.154,10.821v21.9a1.126,1.126,0,0,0,1.126,1.126h13.994a1.126,1.126,0,0,0,1.126-1.126v-24.7C152.091,106.175,149.962,94.761,134.172,94.761Z" transform="translate(-82.258 -73.15)" fill="#fff"/>
  </g>
</svg>
