<svg xmlns="http://www.w3.org/2000/svg" width="75.18" height="61.552" viewBox="0 0 75.18 61.552">
  <g id="XMLID_826_" transform="translate(0.002 -28.097)">
    <path id="XMLID_827_" d="M73.474,35.2a28.5,28.5,0,0,1-3.636,1.325A16.073,16.073,0,0,0,73.11,30.77a1.213,1.213,0,0,0-1.774-1.412A28.615,28.615,0,0,1,62.878,32.7,16.146,16.146,0,0,0,35.443,44.236a16.464,16.464,0,0,0,.132,2.085A41.318,41.318,0,0,1,7.216,31.276a1.213,1.213,0,0,0-1.988.156A16.162,16.162,0,0,0,6.883,50.007a13.671,13.671,0,0,1-2.16-.964,1.213,1.213,0,0,0-1.8,1.032c0,.072,0,.143,0,.216a16.2,16.2,0,0,0,7.9,13.879c-.41-.041-.82-.1-1.228-.178a1.213,1.213,0,0,0-1.382,1.561A16.134,16.134,0,0,0,20.033,76.37,28.552,28.552,0,0,1,4.771,80.726a29.2,29.2,0,0,1-3.418-.2,1.213,1.213,0,0,0-.8,2.225,43.523,43.523,0,0,0,23.535,6.9c16.431,0,26.71-7.748,32.44-14.248A45.161,45.161,0,0,0,67.773,45.967c0-.443-.007-.89-.02-1.336a31.374,31.374,0,0,0,7.22-7.648,1.213,1.213,0,0,0-1.5-1.783Z" transform="translate(0)" fill="#fff"/>
  </g>
</svg>
