<svg xmlns="http://www.w3.org/2000/svg" width="72.534" height="51.047" viewBox="0 0 72.534 51.047">
  <g id="XMLID_822_" transform="translate(0 -45.917)">
    <path id="XMLID_823_" d="M69.707,50.3c-2.618-3.112-7.452-4.382-16.684-4.382H19.511c-9.443,0-14.359,1.351-16.968,4.665C0,53.813,0,58.573,0,65.162V77.719C0,90.483,3.017,96.964,19.511,96.964H53.023c8.006,0,12.442-1.12,15.312-3.867,2.943-2.817,4.2-7.416,4.2-15.377V65.162C72.534,58.214,72.337,53.425,69.707,50.3ZM46.567,73.174,31.349,81.127a2.34,2.34,0,0,1-3.424-2.074V63.2a2.34,2.34,0,0,1,3.418-2.076l15.218,7.9a2.34,2.34,0,0,1,.005,4.15Z" transform="translate(0 0)" fill="#fff"/>
  </g>
</svg>
