<svg width="235" height="80" viewBox="0 0 235 80" fill="none" xmlns="http://www.w3.org/2000/svg">
<path d="M69.7799 29.9443C69.7799 29.9443 132.649 33.1962 154.871 28.0474C154.871 28.0474 143.625 40.7839 73.0317 31.2992L69.7799 29.9443Z" fill="#EFB944"/>
<path d="M73.5737 37.532C73.5737 37.532 116.526 43.6293 148.638 37.532C148.773 37.532 114.222 50.675 73.5737 37.532Z" fill="#EFB944"/>
<path d="M74.3867 45.9327C74.3867 45.9327 110.428 53.3849 148.773 44.9843C148.773 44.9843 111.241 60.5662 74.3867 45.9327Z" fill="#EFB944"/>
<path d="M4.87782 10.2976H16.6659C19.3758 10.2976 20.3242 9.07816 20.3242 6.63925C20.3242 3.92935 19.3758 2.84539 16.1239 2.84539H4.87782V10.2976ZM4.87782 22.0857C4.87782 23.3051 5.14881 23.5761 6.23276 23.5761V24.3891H0V23.7116C1.21945 23.7116 1.35495 23.4406 1.35495 22.2212V2.16792C1.35495 0.948464 1.08396 0.677474 0 0.677474V0H16.9369C21.6792 0 23.8471 2.7099 23.8471 6.77474C23.8471 10.9751 21.4082 13.2785 17.2079 13.414L23.3051 22.7631C23.8471 23.5761 24.1181 23.7116 24.6601 23.7116V24.3891H18.6983V23.7116C19.5113 23.7116 19.6468 23.5761 19.6468 23.3051C19.6468 23.0341 19.3758 22.6276 19.1048 21.9502L13.685 13.414H4.87782V22.0857Z" fill="white"/>
<path d="M35.0932 21.4082C34.8222 22.0857 34.4157 22.7631 34.4157 23.0341C34.4157 23.4406 34.8222 23.7116 35.9062 23.7116V24.3891H29.6734V23.7116C30.8929 23.7116 31.1639 23.1696 31.4349 22.3567L40.1065 2.30341C40.3775 1.76143 40.3775 1.62594 40.3775 1.35495C40.3775 1.08396 39.971 0.677474 39.0226 0.54198V0H47.9652V0.677474C47.4232 0.677474 46.7458 0.812969 46.7458 1.35495C46.7458 1.76143 47.0168 2.03242 47.1523 2.43891L56.6369 22.6276C56.9079 23.1696 57.1789 23.7116 58.3983 23.7116V24.3891H51.4881V23.7116C52.843 23.7116 53.114 23.4406 53.114 23.0341C53.114 22.4922 52.9785 22.2212 52.843 21.8147L43.3584 2.43891L35.0932 21.4082Z" fill="white"/>
<path d="M69.5089 24.3891V23.7116C70.5928 23.7116 70.7283 23.5761 70.7283 23.0341C70.7283 22.7631 70.3218 22.0857 70.1863 21.5437L62.3276 2.16792C61.9211 1.08396 61.5147 0.677474 60.7017 0.677474V0H67.07V0.677474C66.1215 0.677474 65.5795 0.812969 65.5795 1.21945C65.5795 1.62594 65.8505 2.03242 65.986 2.43891L72.6252 18.9693H72.7607L78.7225 2.43891C78.858 2.03242 78.9935 1.62594 78.9935 1.21945C78.9935 0.812969 78.7225 0.677474 77.774 0.677474V0H84.4133V0.677474C83.6003 0.677474 83.1938 0.812969 83.1938 1.08396C83.1938 1.35495 83.4648 1.76143 83.6003 2.30341L89.9686 18.9693H90.1041L95.7949 2.7099C95.9304 2.16792 96.0659 1.76143 96.0659 1.35495C96.0659 0.812969 95.6594 0.677474 94.5754 0.677474V0H100.944V0.677474C99.9952 0.677474 99.5887 0.812969 99.3177 1.62594L92.4075 21.4082C92.272 21.8147 92.001 22.4922 92.001 22.8986C92.001 23.3051 92.272 23.5761 93.2205 23.5761V24.3891H87.2587V23.7116C88.2072 23.7116 88.4781 23.4406 88.4781 23.1696C88.4781 22.8986 88.2072 22.0857 87.9362 21.5437L81.1614 4.47133H81.0259L75.0642 21.4082C74.9287 21.9502 74.6577 22.4922 74.6577 23.0341C74.6577 23.5761 75.3351 23.8471 75.8771 23.7116V24.3891H69.5089Z" fill="white"/>
<path d="M112.054 21.2727H122.894C126.959 21.2727 127.772 20.0532 127.772 17.2079C127.772 14.498 126.552 13.143 122.623 13.143H112.054V21.2727ZM112.054 9.89113H122.216C126.417 9.89113 127.23 8.67167 127.23 6.36826C127.23 4.06485 126.01 2.7099 122.216 2.7099H112.054V9.89113ZM108.396 2.16792C108.396 0.948464 108.125 0.677474 107.041 0.677474V0H122.352C128.449 0 130.888 2.16792 130.888 6.63925C130.888 8.53618 129.94 10.8396 126.959 11.1106V11.2461C129.804 11.7881 131.566 14.0915 131.566 17.3433C131.566 22.2212 128.856 24.2536 122.352 24.2536H106.905V23.5761C108.125 23.5761 108.26 23.3051 108.26 22.0857V2.16792H108.396Z" fill="white"/>
<path d="M142.676 21.4082C142.405 22.0857 141.999 22.7631 141.999 23.0341C141.999 23.4406 142.405 23.7116 143.489 23.7116V24.3891H137.256V23.7116C138.476 23.7116 138.747 23.1696 139.018 22.3567L147.689 2.30341C147.96 1.76143 147.96 1.62594 147.96 1.35495C147.96 1.08396 147.554 0.677474 146.605 0.54198V0H155.548V0.677474C155.006 0.677474 154.329 0.812969 154.329 1.35495C154.329 1.76143 154.6 2.03242 154.735 2.43891L164.22 22.6276C164.491 23.1696 164.762 23.7116 165.981 23.7116V24.3891H159.071V23.7116C160.426 23.7116 160.697 23.4406 160.697 23.0341C160.697 22.4922 160.561 22.2212 160.426 21.8147L151.212 2.43891L142.676 21.4082Z" fill="white"/>
<path d="M172.079 24.3891V23.7116C173.298 23.7116 173.569 23.4406 173.569 22.2212V2.16792C173.569 0.948464 173.298 0.677474 172.079 0.677474V0H180.208V0.677474C178.989 0.677474 178.718 0.948464 178.718 1.21945C178.718 1.49044 178.989 1.76143 179.26 2.16792L194.3 19.3758V2.16792C194.3 0.948464 194.029 0.677474 192.809 0.677474V0H198.906V0.677474C197.687 0.677474 197.416 0.948464 197.416 2.16792V22.0857C197.416 23.3051 197.687 23.5761 198.906 23.5761V24.3891H191.454V23.7116C192.945 23.7116 192.945 23.5761 192.945 23.1696C192.945 22.8986 192.674 22.6276 192.267 22.2212L176.55 4.33584V22.0857C176.55 23.3051 176.821 23.5761 178.04 23.5761V24.3891H172.079Z" fill="white"/>
<path d="M213.811 22.0857C213.811 23.3051 214.082 23.5761 215.166 23.5761V24.3891H208.933V23.7116C210.153 23.7116 210.288 23.4406 210.288 22.2212V2.16792C210.288 0.948464 210.017 0.677474 208.933 0.677474V0H215.166V0.677474C213.946 0.677474 213.811 0.948464 213.811 2.16792V10.5686L225.328 2.03242C225.599 1.76143 226.141 1.49044 226.141 1.21945C226.141 0.812969 225.734 0.677474 224.786 0.677474V0H233.187V0.677474C232.509 0.677474 231.832 0.948464 231.29 1.35495L222.076 8.26519L232.238 22.3567C232.78 23.1696 233.187 23.5761 234.406 23.5761V24.3891H227.36V23.7116C228.58 23.7116 228.715 23.5761 228.715 23.3051C228.715 23.0341 228.444 22.6276 228.038 22.0857L219.366 10.2976L213.811 14.6334V22.0857Z" fill="white"/>
<path d="M42.2744 14.4979C40.3774 15.3109 40.7839 21.1372 43.4938 18.5628C46.0682 15.9884 45.5262 13.143 42.2744 14.4979Z" fill="white"/>
<path d="M149.044 15.5819C147.96 16.6659 153.245 19.9177 153.245 17.0723C153.245 14.0914 151.348 13.2785 149.044 15.5819Z" fill="white"/>
<path d="M68.9669 66.799C68.8314 67.2054 68.8314 67.7474 68.8314 68.0184C68.8314 68.4249 68.6959 68.8314 68.6959 69.2379C68.6959 69.6444 68.6959 70.0508 68.6959 70.4573C68.6959 70.8638 68.6959 71.4058 68.6959 71.9478V72.4897C68.6959 72.6252 68.6959 72.7607 68.6959 72.8962C68.6959 73.0317 68.6959 73.1672 68.8314 73.4382C68.8314 73.5737 68.9669 73.8447 68.9669 74.2512C68.9669 74.3867 68.9669 74.5222 68.9669 74.5222C68.9669 74.6577 68.8314 74.7932 68.6959 74.7932C68.5604 74.7932 68.1539 74.9287 67.7474 74.9287C66.9345 74.9287 66.528 74.9287 66.257 74.7932C65.986 74.6577 65.8505 74.5222 65.8505 74.3867V74.2512V74.1157C65.986 73.8447 65.986 73.7092 65.986 73.5737C65.986 73.4382 65.986 73.1672 65.986 72.8962C65.986 72.3543 65.986 71.8123 65.986 71.1348C65.986 70.4573 65.986 69.7798 65.8505 69.2379C65.8505 68.5604 65.715 68.0184 65.715 67.6119C65.715 67.07 65.5795 66.799 65.5795 66.6635C65.5795 66.528 65.5795 66.3925 65.5795 66.3925C65.5795 66.257 65.715 66.1215 65.8505 66.1215C65.986 66.1215 66.257 65.986 66.6635 65.986H67.4764C67.6119 65.986 67.6119 65.986 67.6119 65.986H67.7474C67.7474 65.986 67.8829 65.986 68.0184 65.986C68.1539 65.986 68.2894 65.986 68.4249 65.986C68.5604 65.986 68.6959 65.986 68.6959 66.1215C68.8314 66.1215 68.8314 66.1215 68.9669 66.1215C69.1024 66.257 69.2379 66.3925 69.2379 66.528L68.9669 66.799ZM66.9345 62.1921C67.2055 62.1921 67.4764 62.1921 67.7474 62.3276C68.0184 62.3276 68.2894 62.4631 68.4249 62.5986C68.5604 62.7341 68.8314 62.7341 68.9669 62.8696C69.1024 63.0051 69.1024 63.1406 69.1024 63.2761C69.1024 63.5471 68.9669 63.8181 68.5604 63.9536C68.2894 64.2246 67.8829 64.2246 67.3409 64.2246C67.07 64.2246 66.799 64.2246 66.6635 64.0891C66.3925 64.0891 66.257 63.9536 65.986 63.8181C65.8505 63.6826 65.715 63.5471 65.5795 63.4116C65.444 63.2761 65.444 63.1406 65.444 63.0051C65.444 62.7341 65.5795 62.5986 65.8505 62.3276C66.257 62.3276 66.528 62.1921 66.9345 62.1921Z" fill="white"/>
<path d="M75.8771 74.9287C75.6061 74.9287 75.4707 74.9287 75.1997 74.9287C75.0642 74.9287 74.9287 74.9287 74.7932 74.9287C74.6577 74.9287 74.3867 74.9287 74.1157 74.9287C73.8447 74.9287 73.5737 74.9287 73.3027 74.7932C73.0317 74.7932 72.7608 74.7932 72.3543 74.6577C72.0833 74.6577 71.8123 74.5222 71.5413 74.5222C70.7283 74.3867 70.4573 74.1158 70.4573 73.7093C70.4573 73.5738 70.4573 73.4383 70.5928 73.3028C70.7283 73.1673 70.7283 73.0318 70.8638 72.8963C70.9993 72.7608 71.1348 72.7608 71.4058 72.7608C71.5413 72.7608 71.5413 72.7608 71.6768 72.7608C71.6768 72.7608 71.8123 72.8963 71.9478 73.0318C72.2188 73.3028 72.6253 73.5738 73.0317 73.7093C73.4382 73.8448 73.9802 73.9803 74.3867 73.9803C74.5222 73.9803 74.7932 73.9803 74.9287 73.8448C75.0642 73.8448 75.3352 73.7093 75.4707 73.7093C75.6062 73.5738 75.7416 73.5738 75.8771 73.4383C76.0126 73.3028 76.0126 73.3028 76.0126 73.1673C76.0126 73.0318 76.0126 72.8963 75.8771 72.7608C75.7416 72.6253 75.6061 72.6253 75.3352 72.4898C74.9287 72.3543 74.5222 72.2188 74.1157 72.0833C73.0317 71.8123 72.2188 71.5414 71.6768 70.9994C71.1348 70.5929 70.8638 69.9154 70.8638 69.1024C70.8638 68.5605 70.8638 68.154 70.9993 67.612C71.1348 67.07 71.2703 66.6635 71.5413 66.2571C72.0833 65.4441 72.6253 65.0376 73.4382 65.0376C73.7092 65.0376 73.9802 65.0376 74.2512 65.0376C74.5222 65.0376 74.7932 65.1731 75.1997 65.3086L75.8771 65.4441C76.2836 65.5796 76.6901 65.5796 76.9611 65.7151C77.2321 65.8506 77.5031 65.9861 77.6386 66.2571C77.7741 66.528 77.9096 66.799 78.0451 67.07C78.1806 67.341 78.1806 67.7475 78.1806 68.2895C78.1806 68.696 78.1806 68.9669 78.0451 69.2379C78.0451 69.5089 77.9096 69.6444 77.7741 69.7799C77.7741 69.7799 77.6386 69.9154 77.3676 69.9154C77.2321 69.9154 76.9611 70.0509 76.9611 70.0509C76.8256 70.0509 76.5546 70.0509 76.4191 69.9154C76.2836 69.7799 76.0126 69.6444 75.8771 69.5089C75.8771 69.3734 75.8771 69.1024 75.8771 68.696V68.154V67.7475C75.8771 66.799 75.6061 66.3925 75.1997 66.3925C75.0642 66.3925 74.7932 66.528 74.3867 66.9345C73.8447 67.612 73.5737 68.2895 73.5737 69.2379C73.5737 69.5089 73.5737 69.7799 73.7092 70.0509C73.7092 70.3219 73.8447 70.4574 74.1157 70.5929C74.2512 70.7284 74.5222 70.8639 74.7932 71.1349C75.0642 71.2704 75.4707 71.4059 76.0126 71.6768C76.5546 71.9478 76.9611 72.0833 77.3676 72.2188C77.7741 72.3543 78.0451 72.4898 78.1806 72.6253C78.4515 72.7608 78.587 72.8963 78.587 73.0318C78.7225 73.1673 78.7225 73.3028 78.7225 73.5738C78.7225 73.8448 78.587 74.1158 78.4515 74.2512C78.316 74.5222 77.9096 74.6577 77.5031 74.7932C76.9611 75.0642 76.6901 75.1997 76.4191 75.1997C76.4191 75.1997 76.2836 75.1997 76.1481 75.1997C76.0126 75.1997 76.0126 75.1997 76.0126 75.1997C76.1481 74.9287 76.0126 74.9287 75.8771 74.9287Z" fill="white"/>
<path d="M85.6328 72.2188C85.6328 71.9478 85.6328 71.6769 85.6328 71.2704C85.6328 70.8639 85.6328 70.5929 85.6328 70.1864C85.6328 69.7799 85.6328 69.3734 85.6328 69.1025C85.6328 68.696 85.6328 68.425 85.6328 68.154C85.6328 68.0185 85.6328 67.7475 85.6328 67.612C85.6328 67.4765 85.6328 67.2055 85.6328 67.07C85.6328 66.9345 85.6328 66.6635 85.4973 66.528C85.4973 66.3926 85.4973 66.2571 85.3618 66.2571C85.3618 66.1216 85.3618 66.1216 85.3618 66.1216C85.3618 65.9861 85.4973 65.8506 85.7683 65.7151C86.0393 65.5796 86.3102 65.5796 86.7167 65.5796C86.9877 65.5796 87.2587 65.5796 87.6652 65.5796C87.9362 65.5796 88.2072 65.7151 88.3427 65.7151C88.4782 65.7151 88.4782 65.8506 88.6137 65.8506C88.6137 65.9861 88.7492 65.9861 88.7492 66.2571C88.8846 66.2571 88.8846 66.2571 88.8846 66.2571H89.0201H89.1556H89.4266C89.5621 66.2571 89.5621 66.2571 89.6976 66.2571C89.6976 66.2571 89.8331 66.2571 89.9686 66.1216C90.1041 66.1216 90.2396 65.9861 90.3751 65.9861C90.5106 65.9861 90.6461 65.9861 90.7816 65.9861C91.3236 65.9861 91.73 65.9861 92.1365 66.1216C92.543 66.2571 92.9495 66.3926 93.356 66.6635C93.4915 66.799 93.627 66.799 93.7625 66.799H93.898C93.898 66.799 94.1689 66.6635 94.4399 66.528C94.7109 66.3926 94.9819 66.2571 95.1174 66.1216C95.3884 65.9861 95.5239 65.9861 95.7949 65.8506C96.0659 65.8506 96.2014 65.7151 96.4724 65.7151C96.7433 65.7151 97.0143 65.7151 97.2853 65.7151C98.2338 65.7151 99.0468 65.9861 99.5887 66.528C100.131 67.07 100.402 67.7475 100.402 68.5605C100.402 68.5605 100.402 68.8315 100.402 69.2379C100.402 69.6444 100.402 70.1864 100.266 70.8639C100.266 70.8639 100.266 70.9994 100.266 71.1349V71.2704C100.402 73.0318 100.402 73.8448 100.402 73.9803C100.402 74.1158 100.402 74.2513 100.402 74.3868C100.402 74.5223 100.266 74.6577 100.131 74.7932C99.9952 74.9287 99.8597 74.9287 99.5887 74.9287C99.3178 74.9287 99.1823 74.9287 98.9113 74.9287C98.6403 74.9287 98.5048 74.9287 98.2338 74.9287C98.0983 74.9287 97.8273 74.9287 97.6918 74.7932C97.5563 74.7932 97.4208 74.6577 97.2853 74.6577L97.1498 74.5223C97.1498 74.3868 97.1498 74.3868 97.1498 74.3868C97.1498 74.2513 97.1498 74.1158 97.2853 73.9803C97.4208 73.7093 97.4208 73.3028 97.4208 72.6253C97.4208 71.9478 97.4208 71.1349 97.4208 70.0509C97.4208 68.967 97.2853 68.2895 97.1498 67.7475C97.0143 67.2055 96.7433 67.07 96.3369 67.07C96.0659 67.07 95.7949 67.2055 95.5239 67.341C95.2529 67.4765 95.1174 67.612 94.8464 67.883C94.7109 68.0185 94.7109 68.154 94.5754 68.2895C94.5754 68.425 94.4399 68.696 94.4399 68.8315C94.4399 69.1025 94.3044 69.3734 94.3044 69.7799C94.3044 70.1864 94.1689 70.7284 94.1689 71.4059C94.1689 71.9478 94.0335 72.2188 94.0335 72.4898C94.0335 72.7608 94.0335 73.0318 94.0335 73.1673C94.0335 73.3028 94.0335 73.5738 94.0335 73.7093C94.0335 73.8448 94.0335 73.9803 94.1689 74.2513V74.3868C94.1689 74.5223 94.0334 74.6577 93.7625 74.7932C93.4915 74.9287 93.085 74.9287 92.4075 74.9287C92.001 74.9287 91.73 74.9287 91.5945 74.7932C91.3236 74.6577 91.3236 74.5223 91.3236 74.3868C91.3236 74.2513 91.3236 73.9803 91.459 73.7093C91.5945 73.4383 91.5945 73.3028 91.5945 73.0318C91.5945 72.7608 91.5945 72.3543 91.5945 71.9478C91.5945 70.8639 91.5945 70.0509 91.5945 69.5089C91.5945 68.967 91.4591 68.425 91.3236 68.154C91.0526 67.4765 90.6461 67.07 90.1041 67.07C89.6976 67.07 89.4266 67.2055 89.0201 67.612C88.7491 67.883 88.4782 68.425 88.3427 68.967C88.2072 69.5089 88.0717 70.1864 88.0717 70.8639C87.9362 71.5414 87.9362 72.2188 87.9362 72.7608C87.9362 73.0318 87.9362 73.4383 87.9362 73.7093C87.9362 73.9803 87.9362 74.2513 87.9362 74.3868V74.5223C87.9362 74.6577 87.9362 74.7932 87.8007 74.7932C87.8007 74.7932 87.6652 74.7932 87.5297 74.7932C87.3942 74.7932 87.2587 74.7932 86.9877 74.7932C86.7167 74.7932 86.4457 74.7932 85.9038 74.7932C85.7683 74.7932 85.4973 74.7932 85.3618 74.6577C85.4973 74.6577 85.3618 74.5223 85.3618 74.5223C85.3618 74.5223 85.3618 74.3868 85.3618 74.2513L85.4973 73.3028L85.6328 72.2188Z" fill="white"/>
<path d="M110.97 69.5088V71.5412C110.97 71.9477 110.97 72.3542 110.97 72.6252V73.3027V74.1157C110.97 74.3866 110.97 74.5221 110.97 74.6576C110.97 75.0641 110.97 75.3351 110.97 75.6061C110.97 75.8771 110.97 76.0126 110.97 76.1481C110.97 77.3675 110.293 78.316 109.073 78.858C108.938 78.9935 108.667 78.9935 108.531 79.129C108.26 79.2645 108.125 79.2645 107.854 79.2645C107.583 79.2645 107.447 79.3999 107.176 79.3999C106.905 79.3999 106.77 79.3999 106.634 79.3999C106.499 79.3999 106.228 79.3999 106.092 79.3999C105.822 79.3999 105.686 79.3999 105.415 79.3999C105.144 79.3999 105.009 79.3999 104.873 79.3999C104.738 79.3999 104.602 79.3999 104.467 79.2645C104.331 79.2645 104.196 79.129 104.06 79.129C103.925 79.129 103.654 78.9935 103.518 78.858C103.383 78.7225 103.112 78.7225 102.976 78.587C102.841 78.4515 102.57 78.4515 102.434 78.316C101.892 77.9095 101.621 77.6385 101.621 77.3675C101.621 77.232 101.621 77.0965 101.757 77.0965C101.892 76.961 102.028 76.961 102.434 76.961C102.705 76.961 102.976 76.8255 103.112 76.8255C103.247 76.8255 103.383 76.8255 103.518 76.961C103.654 77.0965 103.789 77.232 103.925 77.3675C104.331 77.774 104.602 78.045 105.009 78.316C105.415 78.587 105.822 78.7225 106.228 78.7225C106.499 78.7225 106.634 78.7225 106.905 78.587C107.176 78.4515 107.447 78.316 107.583 78.1805C107.854 77.9095 108.125 77.6385 108.26 77.232C108.396 76.8255 108.531 76.2836 108.531 75.8771C108.531 75.6061 108.531 75.3351 108.396 75.0641C108.26 74.9286 108.125 74.7931 107.989 74.7931C107.854 74.7931 107.854 74.7931 107.718 74.7931C107.447 74.9286 107.041 74.9286 106.499 74.9286C105.822 74.9286 105.009 74.7931 104.331 74.6576C103.654 74.5221 103.112 74.2511 102.705 73.8447C102.163 73.4382 101.892 72.6252 101.892 71.5412C101.892 71.2703 101.892 70.8638 101.892 70.1863C101.892 69.6443 101.892 69.2378 101.892 68.8313C101.892 68.6959 101.892 68.4249 101.892 68.2894C101.892 68.0184 101.892 67.8829 101.892 67.6119C101.892 67.3409 101.892 67.2054 101.892 67.0699C101.892 66.9344 101.892 66.7989 101.892 66.6634C101.892 66.5279 101.892 66.3924 101.892 66.2569C101.892 66.1215 102.028 65.8505 102.299 65.8505C102.299 65.8505 102.434 65.8505 102.57 65.8505C102.705 65.8505 102.841 65.8505 103.112 65.715C103.247 65.715 103.518 65.715 103.654 65.715C103.789 65.715 103.925 65.715 104.06 65.715C104.331 65.715 104.602 65.715 104.873 65.8505C105.144 65.986 105.144 66.1215 105.144 66.2569C105.144 66.3924 105.144 66.3924 105.144 66.5279C105.144 66.6634 105.144 66.9344 105.009 67.2054C105.009 67.4764 104.873 67.8829 104.873 68.2894C104.873 68.6959 104.873 69.1023 104.873 69.5088C104.873 69.9153 104.873 70.3218 104.873 70.7283C104.873 71.4058 104.873 72.0832 105.009 72.4897C105.009 73.0317 105.144 73.3027 105.28 73.5737C105.415 73.7092 105.551 73.8447 105.822 74.1157C106.092 74.2511 106.228 74.3866 106.499 74.3866C106.77 74.3866 107.041 74.3866 107.312 74.2511C107.583 74.1156 107.854 73.9802 108.125 73.8447C108.26 73.7092 108.396 73.5737 108.531 73.4382C108.531 73.3027 108.667 73.0317 108.667 72.7607C108.667 72.6252 108.667 72.4897 108.667 72.3542C108.667 72.2187 108.667 71.9477 108.667 71.6767C108.667 71.4058 108.667 71.2703 108.667 70.9993C108.667 70.7283 108.667 70.5928 108.667 70.4573C108.667 70.1863 108.667 69.7798 108.667 69.3733C108.667 68.9668 108.667 68.5604 108.531 68.2894C108.531 67.8829 108.396 67.6119 108.396 67.3409C108.396 67.0699 108.26 66.9344 108.26 66.7989C108.125 66.6634 108.125 66.5279 108.125 66.5279C108.125 66.3924 108.396 66.2569 108.802 66.1214H109.344C109.48 66.1214 109.48 66.1214 109.48 66.1214H109.615C109.615 66.1214 109.615 66.1214 109.751 66.1214C109.751 66.1214 109.886 66.1214 110.022 66.1214C110.022 66.1214 110.157 66.1214 110.293 66.1214H110.428C110.428 66.1214 110.564 66.1214 110.699 66.1214H110.835C110.97 66.1214 111.106 66.1215 111.106 66.2569C111.241 66.3924 111.241 66.3924 111.241 66.5279V66.3924V66.5279C111.241 66.7989 111.241 66.9344 111.241 67.2054C111.241 67.3409 111.241 67.6119 111.241 67.8829V69.5088H110.97Z" fill="white"/>
<path d="M123.165 66.7989C123.029 66.7989 122.758 66.7989 122.623 66.7989C122.487 66.7989 122.216 66.9344 122.081 67.0699C121.945 67.2054 121.81 67.3409 121.674 67.4764C121.539 67.6119 121.403 67.7474 121.403 67.8829C121.268 68.1539 121.132 68.5603 121.132 69.1023C120.997 69.6443 120.997 70.3218 120.997 70.8638C120.997 71.9477 121.132 72.6252 121.403 73.0317C121.539 73.3027 121.81 73.5737 122.081 73.7092C122.352 73.8446 122.623 73.9801 122.894 73.9801C123.436 73.9801 123.842 73.7091 124.113 73.1672C124.249 73.0317 124.249 72.7607 124.384 72.4897C124.52 72.2187 124.52 71.9477 124.52 71.5412C124.52 71.1347 124.655 70.8638 124.655 70.4573C124.655 70.0508 124.655 69.6443 124.655 69.3733C124.655 68.9668 124.655 68.5603 124.52 68.1539C124.384 67.7474 124.384 67.4764 124.113 67.2054C123.978 66.9344 123.571 66.7989 123.165 66.7989ZM119.642 75.1996C119.371 75.1996 119.236 75.1996 119.1 75.1996C118.965 75.1996 118.829 75.1996 118.829 75.1996H118.694C118.694 75.1996 118.558 75.1996 118.558 75.0641C118.423 75.0641 118.287 74.9286 118.287 74.7931C118.287 74.6576 118.287 74.5221 118.287 74.3866C118.287 74.2511 118.287 74.1156 118.287 73.8446C118.287 73.5737 118.287 73.3027 118.423 72.6252C118.423 72.0832 118.423 71.4057 118.423 70.5928C118.423 69.7798 118.423 68.8313 118.423 67.7474C118.423 66.6634 118.423 65.444 118.423 64.2245C118.423 63.4115 118.423 62.7341 118.423 62.0566C118.423 61.5146 118.287 60.9726 118.287 60.8371C118.287 60.7016 118.152 60.5661 118.152 60.4306C118.152 60.2952 118.287 60.1597 118.423 60.0242C118.558 59.8887 118.694 59.8887 118.965 59.8887H119.371C119.507 59.8887 119.507 59.8887 119.642 59.8887C119.778 59.8887 119.778 59.8887 119.913 59.8887C120.048 59.8887 120.184 59.8887 120.455 59.8887H120.726C120.861 59.8887 120.861 59.8887 120.997 59.8887H121.268C121.403 59.8887 121.539 59.8887 121.674 60.0242C121.81 60.0242 121.81 60.1597 121.81 60.1597C121.81 60.2952 121.81 60.4307 121.674 60.5661C121.674 60.5661 121.674 60.7016 121.539 60.7016C121.539 60.8371 121.539 60.8371 121.403 61.1081C121.403 61.2436 121.403 61.5146 121.268 61.9211C121.268 62.3276 121.132 62.7341 121.132 63.4115C121.132 63.6825 121.132 63.818 121.132 63.9535C121.132 64.089 121.132 64.2245 121.132 64.36C121.132 64.4955 121.132 64.631 121.132 64.7665V65.444C121.132 65.5795 121.268 65.5795 121.403 65.5795C121.539 65.5795 121.81 65.5795 122.216 65.715C122.894 65.715 123.436 65.8504 123.978 65.8504C124.52 65.9859 124.926 66.1214 125.333 66.2569C125.875 66.5279 126.417 66.9344 126.688 67.6119C126.959 68.2894 127.23 69.1023 127.23 69.9153C127.23 70.3218 127.23 70.8638 127.094 71.2702C126.959 71.6767 126.823 72.0832 126.688 72.4897C126.552 72.8962 126.281 73.1672 126.01 73.5737C125.739 73.8446 125.468 74.1156 125.197 74.2511C124.926 74.3866 124.655 74.3866 124.384 74.5221C124.113 74.5221 123.571 74.6576 123.029 74.6576H122.623C122.487 74.6576 122.352 74.6576 122.216 74.6576C122.081 74.6576 121.945 74.6576 121.674 74.6576C121.539 74.6576 121.268 74.6576 121.268 74.6576C121.132 74.6576 121.132 74.6576 121.132 74.6576C121.132 74.6576 120.997 74.7931 120.861 74.9286L120.726 75.0641C120.59 75.0641 120.59 75.1996 120.59 75.1996H119.642Z" fill="white"/>
<path d="M133.733 71.1349C133.598 71.1349 133.327 71.1349 133.056 71.2704C132.649 71.2704 132.243 71.4059 131.837 71.5414C131.43 71.6769 131.024 71.8124 130.888 71.9478C130.617 72.0833 130.482 72.2188 130.211 72.4898C130.075 72.6253 130.075 72.7608 130.075 72.8963C130.075 73.3028 130.753 73.5738 132.108 73.5738C132.378 73.5738 132.649 73.5738 133.056 73.4383C133.462 73.3028 133.733 73.3028 134.004 73.1673C134.14 73.0318 134.275 72.8963 134.275 72.6253C134.275 72.3543 134.275 72.0833 134.275 71.9478C134.275 71.8124 134.275 71.6769 134.275 71.5414C134.275 71.4059 134.14 71.4059 134.14 71.4059C133.869 71.1349 133.733 71.1349 133.733 71.1349ZM128.585 68.8315C128.449 68.696 128.449 68.5605 128.449 68.5605V68.425V68.2895C128.449 68.2895 128.585 68.154 128.585 68.0185C128.72 67.883 128.856 67.7475 128.991 67.612C129.127 67.4765 129.398 67.2055 129.669 66.9345C130.075 66.5281 130.617 66.2571 131.024 65.9861C131.566 65.7151 131.972 65.5796 132.378 65.5796C132.378 65.5796 132.92 65.7151 134.14 65.9861C134.411 65.9861 134.682 66.1216 134.817 66.1216C134.953 66.1216 135.088 66.2571 135.224 66.2571C135.359 66.2571 135.495 66.3926 135.495 66.3926C135.63 66.3926 135.63 66.5281 135.766 66.6635C136.037 66.799 136.172 67.2055 136.308 67.612C136.443 68.0185 136.443 68.696 136.443 69.3734C136.443 69.9154 136.443 70.4574 136.443 70.8639C136.443 71.2704 136.443 71.8124 136.308 72.4898C136.308 72.6253 136.308 72.7608 136.308 72.8963V73.1673C136.308 73.3028 136.308 73.4383 136.308 73.5738C136.308 73.7093 136.308 73.8448 136.308 74.1158C136.308 74.3868 136.308 74.6577 136.308 74.7932C136.308 75.0642 136.172 75.3352 135.901 75.3352C135.901 75.3352 135.766 75.3352 135.63 75.3352H135.495C135.359 75.3352 135.359 75.3352 135.224 75.3352C135.088 75.3352 134.953 75.1997 134.817 75.1997C134.682 75.1997 134.546 75.0642 134.546 75.0642C134.411 75.0642 134.411 74.9287 134.411 74.9287C134.275 74.7932 134.275 74.7932 134.275 74.7932H134.14H133.869H133.733C133.191 74.7932 132.785 74.9287 132.514 74.9287C132.108 74.9287 131.972 74.9287 131.837 74.9287C130.753 74.9287 129.94 74.6577 129.262 73.9803C128.991 73.7093 128.856 73.4383 128.72 73.1673C128.585 72.8963 128.449 72.6253 128.449 72.3543C128.449 71.9478 128.585 71.5414 128.991 71.1349C129.398 70.7284 129.804 70.4574 130.482 70.1864C130.753 70.0509 130.888 70.0509 131.024 70.0509C131.159 70.0509 131.295 69.9154 131.566 69.9154C131.701 69.9154 131.972 69.9154 132.243 69.7799C132.514 69.7799 132.785 69.7799 133.056 69.6444C133.327 69.6444 133.598 69.6444 133.733 69.6444C133.869 69.6444 133.869 69.6444 133.869 69.6444C134.275 69.6444 134.411 69.5089 134.411 69.1025C134.411 68.8315 134.411 68.5605 134.275 68.2895C134.14 68.0185 134.14 67.7475 134.004 67.612C133.869 67.4765 133.733 67.341 133.598 67.341C133.327 67.2055 133.191 67.2055 133.056 67.2055C132.785 67.2055 132.514 67.341 132.108 67.612C131.701 67.883 131.159 68.2895 130.482 68.8315C130.346 68.967 130.211 69.1025 130.075 69.1025C130.075 69.2379 129.94 69.2379 129.804 69.5089C129.669 69.6444 129.669 69.7799 129.533 69.7799C129.398 69.7799 129.398 69.7799 129.262 69.6444C128.856 69.238 128.72 69.1025 128.72 68.967L128.585 68.8315Z" fill="white"/>
<path d="M146.47 74.9287C146.334 74.9287 146.334 74.9287 146.334 74.9287H146.199C146.063 74.9287 145.928 74.9287 145.657 74.9287C145.522 74.9287 145.386 74.9287 145.251 74.7932C145.115 74.7932 144.98 74.7932 144.844 74.6577C144.709 74.6577 144.573 74.5223 144.573 74.3868C144.573 74.3868 144.573 74.2513 144.573 74.1158C144.573 73.9803 144.573 73.8448 144.709 73.7093C144.844 73.3028 144.844 72.8963 144.844 72.4898C144.844 72.0833 144.844 71.6769 144.844 71.1349C144.844 70.3219 144.844 69.6444 144.709 69.1025C144.709 68.5605 144.573 68.154 144.438 67.7475C144.302 67.4765 144.167 67.2055 143.896 67.07C143.625 66.9345 143.489 66.799 143.083 66.799C141.999 66.799 141.321 67.7475 141.05 69.5089C141.05 69.6444 141.05 69.9154 140.915 70.0509C140.915 70.1864 140.915 70.4574 140.915 70.5929C140.915 70.8639 140.915 71.1349 140.915 71.4059V72.4898C140.915 72.8963 140.915 73.3028 140.915 73.5738C140.915 73.8448 140.915 74.1158 141.05 74.2513C141.05 74.3868 141.05 74.3868 141.05 74.5223C141.05 74.6577 140.915 74.7932 140.915 74.7932C140.779 74.7932 140.508 74.9287 140.237 74.9287C139.56 74.9287 139.018 74.9287 138.747 74.7932C138.476 74.6577 138.34 74.5222 138.34 74.2513C138.34 74.1158 138.34 74.1158 138.34 73.9803C138.34 73.8448 138.34 73.8448 138.34 73.7093C138.476 72.8963 138.476 71.9478 138.476 70.7284C138.476 69.3734 138.476 68.425 138.476 67.612C138.476 66.9345 138.34 66.3926 138.205 66.1216C138.205 65.9861 138.205 65.8506 138.205 65.8506C138.205 65.7151 138.205 65.7151 138.34 65.7151C138.34 65.7151 138.476 65.5796 138.611 65.5796C138.747 65.5796 138.882 65.5796 139.153 65.5796C139.424 65.5796 139.695 65.5796 140.102 65.5796C140.373 65.5796 140.508 65.5796 140.644 65.5796C140.779 65.5796 140.915 65.7151 141.05 65.7151C141.186 65.8506 141.321 65.8506 141.457 65.8506H141.592H141.728C141.728 65.8506 141.863 65.8506 141.999 65.8506C142.134 65.8506 142.27 65.8506 142.405 65.8506C142.541 65.8506 142.676 65.8506 142.812 65.8506C143.489 65.8506 143.896 65.8506 144.302 65.8506C144.709 65.8506 144.98 65.8506 145.115 65.9861C145.386 65.9861 145.522 66.1216 145.657 66.1216C145.793 66.2571 145.928 66.2571 146.199 66.3926C146.605 66.799 147.012 67.2055 147.147 67.7475C147.283 68.2895 147.418 68.967 147.418 69.9154C147.418 70.0509 147.418 70.3219 147.418 70.5929C147.418 70.8639 147.418 71.1349 147.418 71.4059C147.418 71.6769 147.418 71.9478 147.418 72.2188C147.418 72.4898 147.418 72.7608 147.418 73.0318C147.418 73.1673 147.418 73.3028 147.418 73.4383C147.418 73.5738 147.418 73.5738 147.418 73.7093C147.418 73.8448 147.418 73.9803 147.418 74.1158C147.418 74.2513 147.418 74.3868 147.418 74.3868C147.418 74.5223 147.283 74.6577 146.876 74.6577L146.47 74.9287Z" fill="white"/>
<path d="M152.974 72.2188C152.703 72.2188 152.567 72.3543 152.296 72.6253C152.161 72.8963 152.025 73.3028 152.025 73.5738C152.025 73.5738 152.025 73.7093 152.025 73.9803C152.025 74.1158 152.161 74.2513 152.161 74.3868C152.161 74.5222 152.161 74.5222 152.161 74.5222C152.161 74.6577 151.754 74.7932 151.077 74.7932C150.941 74.7932 150.806 74.7932 150.67 74.7932C150.535 74.7932 150.399 74.7932 150.128 74.7932C149.993 74.7932 149.857 74.7932 149.857 74.7932C149.857 74.7932 149.722 74.7932 149.586 74.7932C149.315 74.7932 149.18 74.7932 149.18 74.6577L149.315 74.5222C149.315 74.5222 149.315 74.5222 149.315 74.3868C149.315 74.3868 149.315 74.2513 149.315 74.1158C149.315 73.9803 149.315 73.8448 149.315 73.5738C149.315 73.3028 149.315 73.0318 149.315 72.6253C149.315 72.4898 149.315 72.2188 149.315 71.8123C149.315 71.4059 149.315 70.8639 149.315 70.3219C149.315 69.7799 149.315 69.2379 149.315 68.696C149.315 68.154 149.315 67.7475 149.315 67.4765C149.315 66.2571 149.315 65.3086 149.315 64.6311C149.315 63.9536 149.315 63.2762 149.315 62.8697C149.315 62.4632 149.315 62.0567 149.315 61.7857C149.315 61.5147 149.315 61.2437 149.18 60.9728C149.18 60.8373 149.18 60.7018 149.18 60.7018V60.5663C149.18 60.4308 149.18 60.2953 149.18 60.2953C149.18 60.2953 149.315 60.1598 149.451 60.1598C149.586 60.1598 149.857 60.0243 150.128 60.0243C150.399 60.0243 150.535 60.0243 150.67 60.0243C150.806 60.0243 151.077 60.0243 151.348 60.0243C151.619 60.0243 151.89 60.0243 152.025 60.1598C152.161 60.1598 152.296 60.2953 152.432 60.2953C152.567 60.2953 152.567 60.4308 152.567 60.5663C152.567 60.7018 152.567 60.8373 152.567 60.9728C152.567 61.1083 152.432 61.3792 152.432 61.7857C152.432 62.0567 152.296 62.4632 152.296 62.8697C152.296 63.2762 152.161 63.6827 152.161 64.0891C152.161 64.4956 152.161 64.7666 152.161 65.1731C152.161 66.528 152.161 67.612 152.161 68.2895C152.161 68.967 152.161 69.5089 152.161 69.7799C152.161 70.0509 152.161 70.1864 152.296 70.1864C152.432 70.1864 152.567 70.0509 152.974 69.7799C153.245 69.5089 153.651 69.1025 154.058 68.696C154.735 68.0185 155.142 67.4765 155.548 67.07C155.819 66.6635 156.09 66.3926 156.09 66.3926C156.226 66.2571 156.226 66.1216 156.361 66.1216C156.497 66.1216 156.497 65.9861 156.632 65.9861C156.768 65.9861 157.039 65.9861 157.31 66.1216C157.31 66.1216 157.445 66.2571 157.581 66.2571C157.716 66.3926 157.852 66.528 157.987 66.6635C158.123 66.799 158.123 66.9345 158.123 66.9345C158.123 67.07 158.123 67.07 157.987 67.2055C157.987 67.2055 157.852 67.341 157.581 67.4765C157.445 67.612 157.174 67.7475 156.768 68.0185C156.497 68.2895 156.09 68.696 155.548 69.2379C155.413 69.3734 155.277 69.5089 155.142 69.6444C155.006 69.7799 155.006 69.7799 154.871 69.9154C154.735 70.0509 154.735 70.0509 154.735 70.0509V70.1864C154.735 70.4574 155.142 70.8639 155.819 71.4059C156.361 71.8123 156.768 72.2188 157.174 72.6253C157.581 73.0318 157.852 73.1673 158.123 73.3028C158.393 73.5738 158.664 73.7093 158.8 73.7093C158.935 73.8448 158.935 73.8448 158.935 73.9803C158.935 74.1158 158.935 74.1158 158.8 74.3868C158.664 74.5222 158.664 74.6577 158.529 74.7932C158.393 74.9287 158.258 75.0642 157.987 75.0642C157.716 75.1997 157.581 75.1997 157.31 75.1997C157.174 75.1997 157.039 75.1997 156.903 75.1997C156.768 75.1997 156.768 75.0642 156.632 74.9287C156.226 74.5222 155.819 74.1158 155.277 73.7093C154.735 73.3028 154.329 73.0318 153.922 72.7608C153.651 72.6253 153.38 72.4898 153.245 72.3543C153.245 72.2188 153.109 72.2188 152.974 72.2188Z" fill="white"/>
<path d="M161.916 72.2189C162.052 72.2189 162.187 72.2189 162.458 72.3544C162.594 72.4899 162.865 72.4899 162.865 72.6254C163 72.7609 163 72.8963 163.136 73.1673C163.136 73.4383 163.271 73.5738 163.271 73.8448C163.271 74.6578 162.729 75.0643 161.781 75.0643C161.103 75.0643 160.697 74.7933 160.561 74.3868V74.2513C160.561 74.1158 160.561 73.9803 160.426 73.5738C160.426 73.3028 160.561 73.0318 160.832 72.7609C161.103 72.4899 161.51 72.2189 161.916 72.2189Z" fill="white"/>
</svg>
