<svg width="38" height="115" viewBox="0 0 38 115" fill="none" xmlns="http://www.w3.org/2000/svg">
<rect x="20.5" y="0.500061" width="17" height="29" rx="8.5" stroke="white"/>
<circle cx="29" cy="9.00006" r="2.5" stroke="white"/>
<path d="M29.4999 38.0001L29.5 114" stroke="white" stroke-width="0.75" stroke-linecap="round"/>
<path d="M20.096 87.126C20.096 88.006 19.9 88.702 19.508 89.214C19.108 89.726 18.576 89.982 17.912 89.982L17.516 89.982C17.436 89.982 17.396 89.942 17.396 89.862L17.396 89.49C17.396 89.41 17.436 89.37 17.516 89.37L17.876 89.37C18.372 89.37 18.772 89.166 19.076 88.758C19.38 88.35 19.532 87.79 19.532 87.078C19.532 86.414 19.396 85.906 19.124 85.554C18.844 85.202 18.46 85.026 17.972 85.026C17.676 85.026 17.42 85.106 17.204 85.266C16.98 85.418 16.772 85.658 16.58 85.986C16.388 86.306 16.168 86.762 15.92 87.354C15.656 87.978 15.436 88.45 15.26 88.77C15.084 89.082 14.864 89.334 14.6 89.526C14.328 89.718 13.98 89.814 13.556 89.814C12.9 89.814 12.396 89.59 12.044 89.142C11.684 88.686 11.504 88.058 11.504 87.258C11.504 86.386 11.704 85.702 12.104 85.206C12.504 84.71 13.04 84.462 13.712 84.462L13.988 84.462C14.068 84.462 14.108 84.502 14.108 84.582L14.108 84.978C14.108 85.058 14.068 85.098 13.988 85.098L13.748 85.098C13.244 85.098 12.84 85.29 12.536 85.674C12.224 86.058 12.068 86.598 12.068 87.294C12.068 87.902 12.196 88.37 12.452 88.698C12.7 89.026 13.06 89.19 13.532 89.19C13.852 89.19 14.112 89.114 14.312 88.962C14.512 88.81 14.688 88.594 14.84 88.314C14.984 88.026 15.176 87.586 15.416 86.994C15.656 86.402 15.888 85.926 16.112 85.566C16.328 85.198 16.584 84.91 16.88 84.702C17.176 84.494 17.532 84.39 17.948 84.39C18.596 84.39 19.116 84.63 19.508 85.11C19.9 85.59 20.096 86.262 20.096 87.126ZM20.096 80.4416C20.096 81.0096 19.948 81.4936 19.652 81.8936C19.356 82.2856 18.96 82.5496 18.464 82.6856C18.08 82.7896 17.58 82.8416 16.964 82.8416C16.372 82.8416 15.876 82.7896 15.476 82.6856C14.988 82.5576 14.596 82.2936 14.3 81.8936C14.004 81.4936 13.856 81.0096 13.856 80.4416C13.856 79.8736 14 79.3856 14.288 78.9776C14.576 78.5616 14.936 78.2976 15.368 78.1856C15.48 78.1536 15.592 78.1296 15.704 78.1136L15.728 78.1136C15.784 78.1136 15.82 78.1496 15.836 78.2216L15.884 78.6056L15.884 78.6296C15.884 78.6856 15.848 78.7216 15.776 78.7376L15.608 78.7736C15.272 78.8456 14.992 79.0336 14.768 79.3376C14.536 79.6416 14.42 80.0096 14.42 80.4416C14.42 80.8816 14.536 81.2496 14.768 81.5456C15 81.8336 15.308 82.0176 15.692 82.0976C15.996 82.1696 16.424 82.2056 16.976 82.2056C17.536 82.2056 17.96 82.1696 18.248 82.0976C18.64 82.0176 18.952 81.8336 19.184 81.5456C19.416 81.2496 19.532 80.8816 19.532 80.4416C19.532 80.0096 19.42 79.6416 19.196 79.3376C18.964 79.0256 18.676 78.8376 18.332 78.7736L18.272 78.7616C18.184 78.7456 18.148 78.6976 18.164 78.6176L18.224 78.2456C18.24 78.1656 18.284 78.1296 18.356 78.1376L18.572 78.1856C19.02 78.2976 19.388 78.5616 19.676 78.9776C19.956 79.3856 20.096 79.8736 20.096 80.4416ZM13.904 74.1701C13.904 73.8981 13.952 73.6661 14.048 73.4741C14.072 73.4101 14.124 73.3861 14.204 73.4021L14.588 73.5101C14.668 73.5341 14.692 73.5861 14.66 73.6661C14.596 73.8261 14.568 74.0261 14.576 74.2661C14.584 74.7141 14.756 75.0861 15.092 75.3821C15.42 75.6701 15.824 75.8141 16.304 75.8141L19.88 75.8141C19.96 75.8141 20 75.8541 20 75.9341L20 76.3301C20 76.4101 19.96 76.4501 19.88 76.4501L14.072 76.4501C13.992 76.4501 13.952 76.4101 13.952 76.3301L13.952 75.9341C13.952 75.8541 13.992 75.8141 14.072 75.8141L14.888 75.8141C14.912 75.8141 14.928 75.8101 14.936 75.8021C14.936 75.7861 14.924 75.7741 14.9 75.7661C14.588 75.5981 14.344 75.3821 14.168 75.1181C13.992 74.8461 13.904 74.5301 13.904 74.1701ZM20.096 69.9888C20.096 70.5488 19.948 71.0288 19.652 71.4288C19.356 71.8288 18.96 72.1008 18.464 72.2448C18.144 72.3328 17.644 72.3768 16.964 72.3768C16.284 72.3768 15.788 72.3328 15.476 72.2448C14.98 72.1008 14.588 71.8328 14.3 71.4408C14.004 71.0408 13.856 70.5528 13.856 69.9768C13.856 69.4168 14.004 68.9368 14.3 68.5368C14.596 68.1288 14.988 67.8568 15.476 67.7208C15.66 67.6728 15.868 67.6408 16.1 67.6248C16.324 67.6088 16.612 67.6008 16.964 67.6008C17.332 67.6008 17.628 67.6088 17.852 67.6248C18.076 67.6408 18.28 67.6728 18.464 67.7208C18.96 67.8568 19.356 68.1288 19.652 68.5368C19.948 68.9368 20.096 69.4208 20.096 69.9888ZM19.532 69.9888C19.532 69.5648 19.416 69.2048 19.184 68.9088C18.944 68.6048 18.632 68.4088 18.248 68.3208C18.032 68.2648 17.608 68.2368 16.976 68.2368C16.336 68.2368 15.912 68.2608 15.704 68.3088C15.312 68.3968 15 68.5928 14.768 68.8968C14.536 69.1928 14.42 69.5568 14.42 69.9888C14.42 70.4208 14.536 70.7848 14.768 71.0808C15 71.3768 15.312 71.5688 15.704 71.6568C15.952 71.7128 16.376 71.7408 16.976 71.7408C17.576 71.7408 18 71.7128 18.248 71.6568C18.64 71.5688 18.952 71.3768 19.184 71.0808C19.416 70.7848 19.532 70.4208 19.532 69.9888ZM20 65.584C20 65.664 19.96 65.704 19.88 65.704L11.72 65.704C11.64 65.704 11.6 65.664 11.6 65.584L11.6 65.188C11.6 65.108 11.64 65.068 11.72 65.068L19.88 65.068C19.96 65.068 20 65.108 20 65.188L20 65.584ZM20 62.877C20 62.957 19.96 62.997 19.88 62.997L11.72 62.997C11.64 62.997 11.6 62.957 11.6 62.877L11.6 62.481C11.6 62.401 11.64 62.361 11.72 62.361L19.88 62.361C19.96 62.361 20 62.401 20 62.481L20 62.877Z" fill="white"/>
</svg>
